<svg id="visual" viewBox="0 0 900 600" width="900" height="600" xmlns="http://www.w3.org/2000/svg" xmlns:xlink="http://www.w3.org/1999/xlink" version="1.1"><g stroke-width="1" stroke-linejoin="bevel"><path d="M387 274L307 272L300 373Z" fill="#2e2e2e" stroke="#2e2e2e"></path><path d="M300 373L396 412L387 274Z" fill="#1d1d1d" stroke="#1d1d1d"></path><path d="M307 272L225 329L300 373Z" fill="#676767" stroke="#676767"></path><path d="M225 329L236 434L300 373Z" fill="#252525" stroke="#252525"></path><path d="M300 373L299 500L396 412Z" fill="#373737" stroke="#373737"></path><path d="M438 472L481 417L396 412Z" fill="#252525" stroke="#252525"></path><path d="M396 412L481 417L387 274Z" fill="#676767" stroke="#676767"></path><path d="M515 262L413 170L387 274Z" fill="#4a4a4a" stroke="#4a4a4a"></path><path d="M387 274L413 170L307 272Z" fill="#404040" stroke="#404040"></path><path d="M307 272L271 172L225 329Z" fill="#4a4a4a" stroke="#4a4a4a"></path><path d="M413 170L271 172L307 272Z" fill="#373737" stroke="#373737"></path><path d="M299 500L438 472L396 412Z" fill="#373737" stroke="#373737"></path><path d="M236 434L299 500L300 373Z" fill="#676767" stroke="#676767"></path><path d="M481 417L515 262L387 274Z" fill="#080808" stroke="#080808"></path><path d="M75 417L236 494L236 434Z" fill="#535353" stroke="#535353"></path><path d="M236 434L236 494L299 500Z" fill="#5d5d5d" stroke="#5d5d5d"></path><path d="M531 194L436 138L413 170Z" fill="#2e2e2e" stroke="#2e2e2e"></path><path d="M413 170L328 92L271 172Z" fill="#5d5d5d" stroke="#5d5d5d"></path><path d="M438 472L471 494L481 417Z" fill="#5d5d5d" stroke="#5d5d5d"></path><path d="M628 394L614 265L515 262Z" fill="#676767" stroke="#676767"></path><path d="M377 600L471 494L438 472Z" fill="#676767" stroke="#676767"></path><path d="M238 130L193 164L271 172Z" fill="#535353" stroke="#535353"></path><path d="M271 172L193 164L225 329Z" fill="#535353" stroke="#535353"></path><path d="M225 329L75 417L236 434Z" fill="#404040" stroke="#404040"></path><path d="M328 92L238 130L271 172Z" fill="#141414" stroke="#141414"></path><path d="M614 265L531 194L515 262Z" fill="#080808" stroke="#080808"></path><path d="M515 262L531 194L413 170Z" fill="#5d5d5d" stroke="#5d5d5d"></path><path d="M436 138L328 92L413 170Z" fill="#141414" stroke="#141414"></path><path d="M193 164L100 237L225 329Z" fill="#404040" stroke="#404040"></path><path d="M100 237L86 285L225 329Z" fill="#5d5d5d" stroke="#5d5d5d"></path><path d="M212 600L337 600L299 500Z" fill="#080808" stroke="#080808"></path><path d="M299 500L377 600L438 472Z" fill="#252525" stroke="#252525"></path><path d="M628 394L515 262L481 417Z" fill="#676767" stroke="#676767"></path><path d="M337 600L377 600L299 500Z" fill="#535353" stroke="#535353"></path><path d="M617 76L490 88L531 194Z" fill="#404040" stroke="#404040"></path><path d="M531 194L490 88L436 138Z" fill="#404040" stroke="#404040"></path><path d="M436 138L363 0L328 92Z" fill="#676767" stroke="#676767"></path><path d="M493 600L583 473L471 494Z" fill="#676767" stroke="#676767"></path><path d="M471 494L583 473L481 417Z" fill="#2e2e2e" stroke="#2e2e2e"></path><path d="M614 265L596 191L531 194Z" fill="#4a4a4a" stroke="#4a4a4a"></path><path d="M86 285L75 417L225 329Z" fill="#4a4a4a" stroke="#4a4a4a"></path><path d="M236 494L212 600L299 500Z" fill="#404040" stroke="#404040"></path><path d="M583 473L628 394L481 417Z" fill="#373737" stroke="#373737"></path><path d="M114 600L212 600L236 494Z" fill="#2e2e2e" stroke="#2e2e2e"></path><path d="M377 600L493 600L471 494Z" fill="#1d1d1d" stroke="#1d1d1d"></path><path d="M490 88L363 0L436 138Z" fill="#141414" stroke="#141414"></path><path d="M328 92L286 0L238 130Z" fill="#1d1d1d" stroke="#1d1d1d"></path><path d="M211 0L77 123L193 164Z" fill="#404040" stroke="#404040"></path><path d="M193 164L77 123L100 237Z" fill="#080808" stroke="#080808"></path><path d="M363 0L286 0L328 92Z" fill="#5d5d5d" stroke="#5d5d5d"></path><path d="M0 496L67 506L75 417Z" fill="#5d5d5d" stroke="#5d5d5d"></path><path d="M75 417L67 506L236 494Z" fill="#1d1d1d" stroke="#1d1d1d"></path><path d="M100 237L0 272L86 285Z" fill="#252525" stroke="#252525"></path><path d="M86 285L0 417L75 417Z" fill="#676767" stroke="#676767"></path><path d="M211 0L193 164L238 130Z" fill="#252525" stroke="#252525"></path><path d="M0 196L0 272L100 237Z" fill="#141414" stroke="#141414"></path><path d="M286 0L211 0L238 130Z" fill="#2e2e2e" stroke="#2e2e2e"></path><path d="M739 396L700 287L628 394Z" fill="#373737" stroke="#373737"></path><path d="M628 394L700 287L614 265Z" fill="#141414" stroke="#141414"></path><path d="M614 265L698 196L596 191Z" fill="#080808" stroke="#080808"></path><path d="M594 0L494 0L490 88Z" fill="#535353" stroke="#535353"></path><path d="M0 272L0 417L86 285Z" fill="#141414" stroke="#141414"></path><path d="M490 88L494 0L363 0Z" fill="#252525" stroke="#252525"></path><path d="M617 76L531 194L596 191Z" fill="#1d1d1d" stroke="#1d1d1d"></path><path d="M67 506L114 600L236 494Z" fill="#141414" stroke="#141414"></path><path d="M0 600L114 600L67 506Z" fill="#535353" stroke="#535353"></path><path d="M698 196L617 76L596 191Z" fill="#080808" stroke="#080808"></path><path d="M77 123L0 196L100 237Z" fill="#2e2e2e" stroke="#2e2e2e"></path><path d="M700 287L698 196L614 265Z" fill="#141414" stroke="#141414"></path><path d="M493 600L606 600L583 473Z" fill="#141414" stroke="#141414"></path><path d="M720 514L739 396L628 394Z" fill="#5d5d5d" stroke="#5d5d5d"></path><path d="M0 417L0 496L75 417Z" fill="#535353" stroke="#535353"></path><path d="M0 0L0 135L77 123Z" fill="#4a4a4a" stroke="#4a4a4a"></path><path d="M77 123L0 135L0 196Z" fill="#404040" stroke="#404040"></path><path d="M720 514L628 394L583 473Z" fill="#373737" stroke="#373737"></path><path d="M700 287L786 278L698 196Z" fill="#404040" stroke="#404040"></path><path d="M211 0L104 0L77 123Z" fill="#404040" stroke="#404040"></path><path d="M674 0L594 0L617 76Z" fill="#141414" stroke="#141414"></path><path d="M617 76L594 0L490 88Z" fill="#676767" stroke="#676767"></path><path d="M606 600L720 514L583 473Z" fill="#1d1d1d" stroke="#1d1d1d"></path><path d="M763 484L778 399L739 396Z" fill="#373737" stroke="#373737"></path><path d="M739 396L786 278L700 287Z" fill="#535353" stroke="#535353"></path><path d="M0 496L0 600L67 506Z" fill="#535353" stroke="#535353"></path><path d="M778 399L786 278L739 396Z" fill="#373737" stroke="#373737"></path><path d="M727 63L674 0L617 76Z" fill="#535353" stroke="#535353"></path><path d="M606 600L696 600L720 514Z" fill="#2e2e2e" stroke="#2e2e2e"></path><path d="M720 514L763 484L739 396Z" fill="#1d1d1d" stroke="#1d1d1d"></path><path d="M778 600L763 484L720 514Z" fill="#080808" stroke="#080808"></path><path d="M727 63L617 76L698 196Z" fill="#404040" stroke="#404040"></path><path d="M804 108L727 63L698 196Z" fill="#1d1d1d" stroke="#1d1d1d"></path><path d="M900 263L800 220L786 278Z" fill="#373737" stroke="#373737"></path><path d="M786 278L800 220L698 196Z" fill="#535353" stroke="#535353"></path><path d="M104 0L0 0L77 123Z" fill="#5d5d5d" stroke="#5d5d5d"></path><path d="M800 220L804 108L698 196Z" fill="#2e2e2e" stroke="#2e2e2e"></path><path d="M727 63L791 0L674 0Z" fill="#404040" stroke="#404040"></path><path d="M696 600L778 600L720 514Z" fill="#535353" stroke="#535353"></path><path d="M900 417L786 278L778 399Z" fill="#4a4a4a" stroke="#4a4a4a"></path><path d="M900 417L900 263L786 278Z" fill="#5d5d5d" stroke="#5d5d5d"></path><path d="M804 108L791 0L727 63Z" fill="#404040" stroke="#404040"></path><path d="M900 417L778 399L763 484Z" fill="#373737" stroke="#373737"></path><path d="M800 220L900 162L804 108Z" fill="#5d5d5d" stroke="#5d5d5d"></path><path d="M804 108L900 0L791 0Z" fill="#373737" stroke="#373737"></path><path d="M900 515L900 417L763 484Z" fill="#1d1d1d" stroke="#1d1d1d"></path><path d="M900 263L900 162L800 220Z" fill="#4a4a4a" stroke="#4a4a4a"></path><path d="M778 600L900 515L763 484Z" fill="#2e2e2e" stroke="#2e2e2e"></path><path d="M900 162L900 117L804 108Z" fill="#373737" stroke="#373737"></path><path d="M778 600L900 600L900 515Z" fill="#535353" stroke="#535353"></path><path d="M900 117L900 0L804 108Z" fill="#252525" stroke="#252525"></path></g></svg>